# xmcd
#
# Track frame offsets: 
#        150
#        18307
#        31863
#        49932
#        67900
#        81683
#        99245
#        115068
#        127753
#        140222
#        163696
#        179911
#        193564
#
# Disc length: 2899 seconds
#
# Revision: 0
# Processed by: cddbd v1.5.1PL2 Copyright (c) Steve Scherf et al.
# Submitted via: ExactAudioCopy v0.95a5
#
DISCID=b20b510d
DTITLE=Blues Blend - Elevated
DYEAR=2002
DGENRE=Blues
TTITLE0=Have Some Fun
TTITLE1=Swingin' Reeds
TTITLE2=Making Tracks
TTITLE3=Rocky Roads
TTITLE4=It's Your Voodoo Working
TTITLE5=Jersey Bounds
TTITLE6=Chicago Shoes
TTITLE7=Drum Boogie
TTITLE8=Don't Jump Back
TTITLE9=I'm in the Rat Race
TTITLE10=Cockroach Boogie
TTITLE11=Hideaway
TTITLE12=One Sweet Letter
EXTD=
EXTT0=
EXTT1=
EXTT2=
EXTT3=
EXTT4=
EXTT5=
EXTT6=
EXTT7=
EXTT8=
EXTT9=
EXTT10=
EXTT11=
EXTT12=
PLAYORDER=
